<svg xmlns="http://www.w3.org/2000/svg" viewBox="0 0 38.88 51.79"><defs><style>.cls-1{fill:#231f20;}</style></defs><g id="Layer_2" data-name="Layer 2"><g id="Layer_1-2" data-name="Layer 1"><path class="cls-1" d="M38.86,45,36.43,17.44a6.24,6.24,0,0,0-6.2-5.68H28.29c-.47-3.45-1.48-6.95-3.51-9.21A7.39,7.39,0,0,0,19.06,0a7.09,7.09,0,0,0-5.61,2.54c-1.93,2.27-2.77,5.77-3.08,9.22H8.66a6.22,6.22,0,0,0-6.2,5.68L0,45a6.23,6.23,0,0,0,6.2,6.77H32.66A6.23,6.23,0,0,0,38.86,45ZM15,3.84A5.09,5.09,0,0,1,19.06,2a5.41,5.41,0,0,1,4.23,1.88c1.68,1.87,2.55,4.85,3,7.88H12.37C12.65,8.72,13.37,5.71,15,3.84Z"/></g></g></svg>