<svg xmlns="http://www.w3.org/2000/svg" viewBox="0 0 150.19 199.85"><defs><style>.cls-1{fill:#2c23f7;}</style></defs><g id="Layer_2" data-name="Layer 2"><g id="Layer_1-2" data-name="Layer 1"><path class="cls-1" d="M150.1,173.71,140.72,67.33A24.1,24.1,0,0,0,116.78,45.4H109.3c-1.82-13.31-5.72-26.82-13.55-35.55A28.52,28.52,0,0,0,73.67,0,27.39,27.39,0,0,0,52,9.81C44.56,18.58,41.32,32.09,40.12,45.4h-6.6A24,24,0,0,0,9.59,67.33L.09,173.71a24,24,0,0,0,21.88,26c.68.06,1.37.09,2.05.09H126.16a24.06,24.06,0,0,0,24-24.08C150.19,175.09,150.16,174.4,150.1,173.71ZM58,14.83a19.66,19.66,0,0,1,15.68-7.1A20.85,20.85,0,0,1,90,15c6.49,7.21,9.85,18.72,11.59,30.41H47.84C48.92,33.67,51.7,22.05,58,14.83Zm52.07,131.66L95.43,161.12,74.71,140.4,54,161.12,39.35,146.49l20.73-20.72L39.35,105,54,90.41l20.73,20.73L95.43,90.41,110.06,105,89.34,125.77Z"/></g></g></svg>