<svg xmlns="http://www.w3.org/2000/svg" xmlns:xlink="http://www.w3.org/1999/xlink" viewBox="0 0 411.14 48.83"><defs><style>.cls-1{fill:none;}.cls-2{clip-path:url(#clip-path);}.cls-3{fill:#2c23f7;}</style><clipPath id="clip-path" transform="translate(-4.82 -4.16)"><rect id="SVGID" class="cls-1" width="429.34" height="61.26"/></clipPath></defs><g id="Layer_2" data-name="Layer 2"><g id="Layer_1-2" data-name="Layer 1"><g class="cls-2"><path class="cls-3" d="M27.74,26.36H45.58V46a25.33,25.33,0,0,1-8.53,5.14A29.48,29.48,0,0,1,26.83,53a24.4,24.4,0,0,1-9.67-1.76,18.32,18.32,0,0,1-6.87-4.94,21.07,21.07,0,0,1-4.1-7.72,34.47,34.47,0,0,1-1.37-10,32,32,0,0,1,1.5-10.16,22.52,22.52,0,0,1,4.26-7.68,18.28,18.28,0,0,1,6.74-4.88,22.36,22.36,0,0,1,8.86-1.7,23.78,23.78,0,0,1,7.71,1.11,16.38,16.38,0,0,1,5.47,3.06,15,15,0,0,1,3.58,4.56,20.94,20.94,0,0,1,1.92,5.6l-9.63,1.23a19.56,19.56,0,0,0-.95-3.09,6.34,6.34,0,0,0-1.59-2.28,7,7,0,0,0-2.61-1.43,13.1,13.1,0,0,0-3.9-.49q-5.67,0-8.47,4.23t-2.8,11.92c0,5.16.95,9.15,2.83,11.94s5,4.2,9.22,4.2a20.22,20.22,0,0,0,5.3-.61,16.52,16.52,0,0,0,4.33-1.93V34.44H27.74Z" transform="translate(-4.82 -4.16)"/><path class="cls-3" d="M73.05,47.52a17.66,17.66,0,0,1-4.52,3.71,12.93,12.93,0,0,1-6.48,1.44,15.72,15.72,0,0,1-4.33-.59,10,10,0,0,1-3.58-1.82A8.86,8.86,0,0,1,51.7,47.1a10.58,10.58,0,0,1-.92-4.59,9.75,9.75,0,0,1,1.57-5.73,10.71,10.71,0,0,1,4.1-3.45,20.79,20.79,0,0,1,5.7-1.76,54.14,54.14,0,0,1,6.41-.65l4.36-.19V29q0-3.12-1.72-4.29a7.11,7.11,0,0,0-4.07-1.18q-5.41,0-6.19,4.11l-8.33-.79c.61-3.55,2.17-6.13,4.69-7.71s5.9-2.38,10.15-2.38a20.41,20.41,0,0,1,6.64.95,10.75,10.75,0,0,1,4.4,2.7A10.53,10.53,0,0,1,80.9,24.7a20.06,20.06,0,0,1,.74,5.64V51.82H73.05Zm-.19-10.87-4,.2a23,23,0,0,0-4.62.58,8.37,8.37,0,0,0-2.71,1.14,3.34,3.34,0,0,0-1.26,1.6,5.85,5.85,0,0,0-.33,2,3.29,3.29,0,0,0,1.17,2.67,5,5,0,0,0,3.26,1,9.42,9.42,0,0,0,5.73-1.63,6.8,6.8,0,0,0,2.8-5.79Z" transform="translate(-4.82 -4.16)"/><path class="cls-3" d="M89.39,17.83h8.86v4.56a12.32,12.32,0,0,1,4.42-4.23,12,12,0,0,1,11.4.13,8.08,8.08,0,0,1,3.32,4.36,15.18,15.18,0,0,1,5-4.49,12.11,12.11,0,0,1,5.72-1.37q5.28,0,7.91,2.9t2.64,9.41V51.82H129.5V30.34a11,11,0,0,0-.33-3,4.83,4.83,0,0,0-.88-1.79,3,3,0,0,0-1.33-.91,5.25,5.25,0,0,0-1.63-.26,6.6,6.6,0,0,0-2.51.46,6.71,6.71,0,0,0-2.24,1.56,7.41,7.41,0,0,0-1.47,2.08,5.72,5.72,0,0,0-.55,2.48V51.82h-9.12V30.34a11,11,0,0,0-.32-3,4.83,4.83,0,0,0-.88-1.79,3,3,0,0,0-1.33-.91,5.29,5.29,0,0,0-1.63-.26,6.23,6.23,0,0,0-4.75,2,7,7,0,0,0-1.47,2.18,6.85,6.85,0,0,0-.55,2.77V51.82H89.39Z" transform="translate(-4.82 -4.16)"/><path class="cls-3" d="M177.48,41.21a13.37,13.37,0,0,1-4.59,8.69q-3.67,3-10.71,3-8.46,0-12.73-4.69t-4.26-13.28a22.16,22.16,0,0,1,1.23-7.65,16.28,16.28,0,0,1,3.49-5.69A14.37,14.37,0,0,1,155.28,18a19.08,19.08,0,0,1,6.9-1.21q7.81,0,11.75,4.5t3.94,12.11V37H154.3a10.17,10.17,0,0,0,2.08,6.41,7.23,7.23,0,0,0,5.86,2.32c3.61,0,5.73-1.52,6.38-4.56Zm-8.4-10.16a8,8,0,0,0-1.73-5.47q-1.72-1.95-5.37-1.95a7.93,7.93,0,0,0-3.19.59,6.8,6.8,0,0,0-2.31,1.59A7.17,7.17,0,0,0,155,28.15a8.81,8.81,0,0,0-.59,2.9Z" transform="translate(-4.82 -4.16)"/><path class="cls-3" d="M206.84,36.65q.33,4.31,2.77,6.25c1.63,1.3,4,2,7.19,2a13.22,13.22,0,0,0,3.84-.48,7.31,7.31,0,0,0,2.54-1.31,4.59,4.59,0,0,0,1.4-1.92,6.71,6.71,0,0,0,.43-2.41,5.16,5.16,0,0,0-1.37-3.41q-1.38-1.6-5-2.32l-6.05-1.1a36,36,0,0,1-6.32-1.69,14.71,14.71,0,0,1-4.59-2.71,10.82,10.82,0,0,1-2.83-4.07,15.2,15.2,0,0,1-1-5.73,12.37,12.37,0,0,1,1.33-5.85,12,12,0,0,1,3.71-4.24A17.57,17.57,0,0,1,208.6,5a28.67,28.67,0,0,1,7.29-.88,26.18,26.18,0,0,1,8.46,1.17,15.51,15.51,0,0,1,5.47,3.1,12,12,0,0,1,3.09,4.46,20.72,20.72,0,0,1,1.34,5.27l-9.18,1.17a9.05,9.05,0,0,0-2.77-5.53c-1.36-1.13-3.44-1.69-6.22-1.69a16.26,16.26,0,0,0-4.06.42,7.94,7.94,0,0,0-2.58,1.11,3.71,3.71,0,0,0-1.36,1.59,4.77,4.77,0,0,0-.39,1.89A5,5,0,0,0,209.15,21a10.94,10.94,0,0,0,5,2l6.38,1.24q7.56,1.5,11.07,4.85t3.52,9.67A13.88,13.88,0,0,1,234,44.43a12.49,12.49,0,0,1-3.39,4.49,16.05,16.05,0,0,1-5.63,3A26.58,26.58,0,0,1,217,53q-9.51,0-14.56-4.07T197,36.65Z" transform="translate(-4.82 -4.16)"/><path class="cls-3" d="M244,24.93h-5.34v-7.1H244v-9h9.11v9h7.82v7.1h-7.82V40.62c0,1.78.37,3,1.11,3.62a4.25,4.25,0,0,0,2.86.94,16.82,16.82,0,0,0,1.86-.1,9.86,9.86,0,0,0,1.86-.36l1.3,6.71a21.61,21.61,0,0,1-3.68.81,27.41,27.41,0,0,1-3.42.23q-5.59,0-8.3-2.67t-2.7-9Z" transform="translate(-4.82 -4.16)"/><path class="cls-3" d="M286.72,47.52a17.66,17.66,0,0,1-4.52,3.71,12.9,12.9,0,0,1-6.48,1.44,15.72,15.72,0,0,1-4.33-.59,10,10,0,0,1-3.58-1.82,9,9,0,0,1-2.44-3.16,10.59,10.59,0,0,1-.91-4.59A9.75,9.75,0,0,1,266,36.78a10.71,10.71,0,0,1,4.1-3.45,20.79,20.79,0,0,1,5.7-1.76,54.14,54.14,0,0,1,6.41-.65l4.36-.19V29q0-3.12-1.72-4.29a7.09,7.09,0,0,0-4.07-1.18q-5.42,0-6.19,4.11l-8.33-.79c.61-3.55,2.17-6.13,4.69-7.71s5.9-2.38,10.15-2.38a20.41,20.41,0,0,1,6.64.95,10.75,10.75,0,0,1,4.4,2.7,10.42,10.42,0,0,1,2.41,4.26,19.69,19.69,0,0,1,.75,5.64V51.82h-8.6Zm-.19-10.87-4,.2a23,23,0,0,0-4.62.58,8.4,8.4,0,0,0-2.7,1.14,3.36,3.36,0,0,0-1.27,1.6,5.85,5.85,0,0,0-.33,2,3.29,3.29,0,0,0,1.17,2.67,5,5,0,0,0,3.26,1,9.42,9.42,0,0,0,5.73-1.63,7.18,7.18,0,0,0,2-2.31,7.05,7.05,0,0,0,.78-3.48Z" transform="translate(-4.82 -4.16)"/><path class="cls-3" d="M305.15,24.93h-5.34v-7.1h5.34v-9h9.11v9h7.81v7.1h-7.81V40.62c0,1.78.37,3,1.11,3.62a4.25,4.25,0,0,0,2.86.94,16.82,16.82,0,0,0,1.86-.1,9.61,9.61,0,0,0,1.85-.36l1.31,6.71a21.61,21.61,0,0,1-3.68.81,27.66,27.66,0,0,1-3.42.23q-5.59,0-8.3-2.67t-2.7-9Z" transform="translate(-4.82 -4.16)"/><path class="cls-3" d="M327.67,5.33h9.38v8.21h-9.38Zm.13,12.5h9.12v34H327.8Z" transform="translate(-4.82 -4.16)"/><path class="cls-3" d="M361.07,52.86q-8.2,0-12.69-4.69t-4.5-13.41a22,22,0,0,1,1.21-7.52,15.48,15.48,0,0,1,3.45-5.66A15.15,15.15,0,0,1,354,18a21.09,21.09,0,0,1,14.25,0,14.72,14.72,0,0,1,8.86,9.21,22.78,22.78,0,0,1,1.17,7.52,22.47,22.47,0,0,1-1.2,7.59A15.93,15.93,0,0,1,373.6,48a14.82,14.82,0,0,1-5.43,3.59A19.59,19.59,0,0,1,361.07,52.86Zm0-7.29a6.58,6.58,0,0,0,5.83-2.8c1.28-1.87,1.92-4.53,1.92-8s-.64-6.12-1.92-7.94a7.59,7.59,0,0,0-11.66,0q-1.92,2.73-1.92,7.94t1.89,8A6.59,6.59,0,0,0,361.07,45.57Z" transform="translate(-4.82 -4.16)"/><path class="cls-3" d="M385.16,17.83H394v4.69a12.42,12.42,0,0,1,4.78-4.36,12.84,12.84,0,0,1,5.76-1.37c3.87,0,6.73,1,8.6,3S416,25,416,29.36V51.82h-9.12V30.6q0-3.59-1.37-4.89a5.08,5.08,0,0,0-3.64-1.3,7.94,7.94,0,0,0-3,.52,8.5,8.5,0,0,0-2.38,1.5,8.34,8.34,0,0,0-1.53,2.18,6.28,6.28,0,0,0-.61,2.77V51.82h-9.12Z" transform="translate(-4.82 -4.16)"/></g></g></g></svg>