<svg xmlns="http://www.w3.org/2000/svg" xmlns:xlink="http://www.w3.org/1999/xlink" viewBox="0 0 105.95 128.82"><defs><style>.cls-1{fill:url(#linear-gradient);}.cls-2{fill:#fff;}.cls-3{fill:url(#linear-gradient-2);}</style><linearGradient id="linear-gradient" y1="64.41" x2="90.73" y2="64.41" gradientUnits="userSpaceOnUse"><stop offset="0" stop-color="#2c23f7"/><stop offset="0.06" stop-color="#2e2af6"/><stop offset="0.52" stop-color="#395bf1"/><stop offset="0.75" stop-color="#3e6eef"/></linearGradient><linearGradient id="linear-gradient-2" x1="81.28" y1="74.73" x2="105.95" y2="74.73" xlink:href="#linear-gradient"/></defs><g id="Layer_2" data-name="Layer 2"><g id="Layer_1-2" data-name="Layer 1"><path class="cls-1" d="M81.28,20.64l-13.62,1C65.52,7.87,54.2-1.43,41.23.18,28.91,1.71,19.12,12.67,17.35,25.52l-10.58.81L0,117.57l90.73,11.25ZM41.23,3.89C52.25,2.6,61.82,10.4,63.9,22L20.47,25.28C22.23,14.32,30.69,5.11,41.23,3.89Z"/><path class="cls-2" d="M25.87,68.61c-5.78,0-10.37-5.39-10.37-11.9s4.59-12,10.37-12.3c5.95-.29,10.91,5,10.91,11.88S31.82,68.65,25.87,68.61Zm0-22.6c-5,.22-9,5-9,10.68s4,10.29,9,10.31,9.43-4.77,9.43-10.68S31,45.78,25.87,46Z"/><path class="cls-2" d="M69.93,68.17,46.81,68V44.16l23.12-1.07ZM48.25,66.46l20.1.07V44.79l-20.1.87Z"/><polygon class="cls-2" points="69.93 82.73 68.65 81.36 58.08 91.92 47.98 80.64 46.81 81.86 56.86 93.14 46.81 103.19 47.98 104.56 58.08 94.51 68.65 106.37 69.93 105.16 59.31 93.29 69.93 82.73"/><path class="cls-2" d="M38,104l-23.52-2.07L25.87,80.14ZM16.85,100.6l18.44,1.57L25.87,83.54Z"/><polygon class="cls-3" points="81.28 20.64 95.85 28.75 105.95 118.47 90.73 128.82 81.28 20.64"/></g></g></svg>