<svg xmlns="http://www.w3.org/2000/svg" xmlns:xlink="http://www.w3.org/1999/xlink" viewBox="0 0 617.41 128.82"><defs><style>.cls-1{fill:none;}.cls-2{fill:url(#linear-gradient);}.cls-3{fill:#fff;}.cls-4{fill:url(#linear-gradient-2);}.cls-5{clip-path:url(#clip-path);}.cls-6{fill:#2c23f7;}</style><linearGradient id="linear-gradient" y1="64.41" x2="90.73" y2="64.41" gradientUnits="userSpaceOnUse"><stop offset="0" stop-color="#2c23f7"/><stop offset="0.06" stop-color="#2e2af6"/><stop offset="0.52" stop-color="#395bf1"/><stop offset="0.75" stop-color="#3e6eef"/></linearGradient><linearGradient id="linear-gradient-2" x1="81.28" y1="74.73" x2="105.95" y2="74.73" xlink:href="#linear-gradient"/><clipPath id="clip-path"><rect class="cls-1" x="201.45" y="41.77" width="429.34" height="61.26"/></clipPath></defs><g id="Layer_2" data-name="Layer 2"><g id="Layer_1-2" data-name="Layer 1"><path class="cls-2" d="M81.28,20.64l-13.62,1C65.52,7.87,54.2-1.43,41.23.18,28.91,1.71,19.12,12.67,17.35,25.52l-10.58.81L0,117.57l90.73,11.25ZM41.23,3.89C52.25,2.6,61.82,10.4,63.9,22L20.47,25.28C22.23,14.32,30.69,5.11,41.23,3.89Z"/><path class="cls-3" d="M25.87,68.61c-5.78,0-10.37-5.39-10.37-11.9s4.59-12,10.37-12.3c5.95-.29,10.91,5,10.91,11.88S31.82,68.65,25.87,68.61Zm0-22.6c-5,.22-9,5-9,10.68s4,10.29,9,10.31,9.43-4.77,9.43-10.68S31,45.78,25.87,46Z"/><path class="cls-3" d="M69.93,68.17,46.81,68V44.16l23.12-1.07ZM48.25,66.46l20.1.07V44.79l-20.1.87Z"/><polygon class="cls-3" points="69.93 82.73 68.65 81.36 58.08 91.92 47.98 80.64 46.81 81.86 56.86 93.14 46.81 103.19 47.98 104.56 58.08 94.51 68.65 106.37 69.93 105.16 59.31 93.29 69.93 82.73"/><path class="cls-3" d="M38,104l-23.52-2.07L25.87,80.14ZM16.85,100.6l18.44,1.57L25.87,83.54Z"/><polygon class="cls-4" points="81.28 20.64 95.85 28.75 105.95 118.47 90.73 128.82 81.28 20.64"/><g class="cls-5"><path class="cls-6" d="M229.19,68.13H247V87.79a25,25,0,0,1-8.53,5.14,29.26,29.26,0,0,1-10.22,1.83A24.58,24.58,0,0,1,218.61,93a18.24,18.24,0,0,1-6.87-5,21,21,0,0,1-4.1-7.71,34.54,34.54,0,0,1-1.37-10,32,32,0,0,1,1.5-10.15A22.47,22.47,0,0,1,212,52.5a18.4,18.4,0,0,1,6.74-4.88,22.36,22.36,0,0,1,8.86-1.69A23.78,23.78,0,0,1,235.34,47a16.19,16.19,0,0,1,5.47,3.05,15.29,15.29,0,0,1,3.58,4.56,21.19,21.19,0,0,1,1.92,5.6l-9.63,1.24a18.57,18.57,0,0,0-1-3.09,6.34,6.34,0,0,0-1.59-2.28,6.86,6.86,0,0,0-2.61-1.43,13.1,13.1,0,0,0-3.9-.49q-5.67,0-8.47,4.23t-2.8,11.91q0,7.75,2.84,12t9.21,4.2a20.14,20.14,0,0,0,5.3-.62A16.16,16.16,0,0,0,238,84V76.2h-8.85Z"/><path class="cls-6" d="M274.5,89.29A17.66,17.66,0,0,1,270,93a13,13,0,0,1-6.48,1.43,15.72,15.72,0,0,1-4.33-.58A9.88,9.88,0,0,1,255.59,92a8.85,8.85,0,0,1-2.44-3.15,10.59,10.59,0,0,1-.91-4.59,9.7,9.7,0,0,1,1.56-5.73,10.54,10.54,0,0,1,4.1-3.45,20.45,20.45,0,0,1,5.7-1.76,50.24,50.24,0,0,1,6.41-.65l4.36-.2V70.8c0-2.08-.57-3.52-1.72-4.3a7.08,7.08,0,0,0-4.07-1.17q-5.41,0-6.19,4.1l-8.33-.78q.91-5.34,4.69-7.71t10.15-2.38a20.43,20.43,0,0,1,6.64.94,10.66,10.66,0,0,1,4.4,2.71,10.42,10.42,0,0,1,2.41,4.26,19.62,19.62,0,0,1,.75,5.63V93.59h-8.6Zm-.19-10.87-4,.19a22.94,22.94,0,0,0-4.62.59,7.89,7.89,0,0,0-2.7,1.14,3.3,3.3,0,0,0-1.27,1.59,5.9,5.9,0,0,0-.33,2,3.29,3.29,0,0,0,1.17,2.67,5,5,0,0,0,3.26,1A9.48,9.48,0,0,0,271.51,86a7.4,7.4,0,0,0,2-2.31,7.12,7.12,0,0,0,.78-3.49Z"/><path class="cls-6" d="M290.84,59.6h8.86v4.56a12.4,12.4,0,0,1,4.42-4.23,12,12,0,0,1,11.4.13,8.08,8.08,0,0,1,3.32,4.36,15.18,15.18,0,0,1,5-4.49,12,12,0,0,1,5.73-1.37q5.26,0,7.91,2.9t2.63,9.4V93.59H331V72.1a10.94,10.94,0,0,0-.33-3,4.75,4.75,0,0,0-.88-1.79,2.87,2.87,0,0,0-1.33-.91,4.93,4.93,0,0,0-1.63-.26,6.79,6.79,0,0,0-2.51.45A7,7,0,0,0,322,68.19a7.45,7.45,0,0,0-1.47,2.09,5.68,5.68,0,0,0-.55,2.47V93.59H310.9V72.1a10.94,10.94,0,0,0-.33-3,4.75,4.75,0,0,0-.88-1.79,2.87,2.87,0,0,0-1.33-.91,5,5,0,0,0-1.63-.26,6.79,6.79,0,0,0-2.51.45A6.91,6.91,0,0,0,302,68.19a7,7,0,0,0-1.47,2.19,6.77,6.77,0,0,0-.55,2.76V93.59h-9.12Z"/><path class="cls-6" d="M378.93,83a13.4,13.4,0,0,1-4.59,8.7q-3.68,3-10.71,3-8.46,0-12.73-4.69t-4.26-13.28A22.08,22.08,0,0,1,347.87,69a16.23,16.23,0,0,1,3.49-5.7,14.79,14.79,0,0,1,5.37-3.55,19.08,19.08,0,0,1,6.9-1.2q7.81,0,11.75,4.49t3.94,12.11v3.65H355.75a10.19,10.19,0,0,0,2.08,6.41,7.27,7.27,0,0,0,5.87,2.31c3.6,0,5.72-1.52,6.38-4.56Zm-8.4-10.15a8,8,0,0,0-1.72-5.47c-1.15-1.3-2.95-1.95-5.37-1.95a8,8,0,0,0-3.19.58,6.64,6.64,0,0,0-2.32,1.6,7.23,7.23,0,0,0-1.46,2.34,9.07,9.07,0,0,0-.59,2.9Z"/><path class="cls-6" d="M408.29,78.42q.33,4.29,2.77,6.25c1.63,1.3,4,2,7.19,2a12.85,12.85,0,0,0,3.84-.49,7.31,7.31,0,0,0,2.54-1.3,4.59,4.59,0,0,0,1.4-1.92,6.53,6.53,0,0,0,.43-2.41,5.19,5.19,0,0,0-1.37-3.42q-1.36-1.59-5-2.31L414,73.66A35.16,35.16,0,0,1,407.7,72a14.51,14.51,0,0,1-4.59-2.7,10.9,10.9,0,0,1-2.83-4.07,15.27,15.27,0,0,1-1-5.73,12.41,12.41,0,0,1,1.33-5.86,12,12,0,0,1,3.71-4.23,17.35,17.35,0,0,1,5.7-2.57,28.23,28.23,0,0,1,7.29-.88,26.25,26.25,0,0,1,8.47,1.17,15.39,15.39,0,0,1,5.46,3.09,12.19,12.19,0,0,1,3.1,4.46,21.2,21.2,0,0,1,1.33,5.28l-9.18,1.17a9.08,9.08,0,0,0-2.77-5.54c-1.36-1.12-3.44-1.69-6.21-1.69a16.29,16.29,0,0,0-4.07.42,8.51,8.51,0,0,0-2.58,1.11,3.79,3.79,0,0,0-1.36,1.6,4.69,4.69,0,0,0-.39,1.88,5,5,0,0,0,1.46,3.91,10.94,10.94,0,0,0,5,2L422,66.05q7.56,1.5,11.07,4.85c2.35,2.23,3.52,5.46,3.52,9.66a13.8,13.8,0,0,1-1.14,5.64A12.57,12.57,0,0,1,432,90.69a15.88,15.88,0,0,1-5.63,3,26.24,26.24,0,0,1-7.94,1.08q-9.51,0-14.55-4.07t-5.44-12.27Z"/><path class="cls-6" d="M445.4,66.7h-5.34V59.6h5.34V50.55h9.12V59.6h7.81v7.1h-7.81V82.39c0,1.78.36,3,1.1,3.61a4.26,4.26,0,0,0,2.87.94c.6,0,1.22,0,1.85-.09a11.75,11.75,0,0,0,1.86-.36l1.3,6.71a21.61,21.61,0,0,1-3.68.81,27.41,27.41,0,0,1-3.42.23q-5.59,0-8.3-2.67t-2.7-9Z"/><path class="cls-6" d="M488.17,89.29A17.66,17.66,0,0,1,483.65,93a13,13,0,0,1-6.48,1.43,15.72,15.72,0,0,1-4.33-.58A9.88,9.88,0,0,1,469.26,92a8.85,8.85,0,0,1-2.44-3.15,10.59,10.59,0,0,1-.91-4.59,9.7,9.7,0,0,1,1.56-5.73,10.54,10.54,0,0,1,4.1-3.45,20.45,20.45,0,0,1,5.7-1.76,50.24,50.24,0,0,1,6.41-.65l4.36-.2V70.8c0-2.08-.57-3.52-1.72-4.3a7.08,7.08,0,0,0-4.07-1.17q-5.4,0-6.19,4.1l-8.33-.78q.91-5.34,4.69-7.71t10.15-2.38a20.53,20.53,0,0,1,6.65.94,10.69,10.69,0,0,1,4.39,2.71A10.42,10.42,0,0,1,496,66.47a19.62,19.62,0,0,1,.75,5.63V93.59h-8.6ZM488,78.42l-4,.19a22.94,22.94,0,0,0-4.62.59,8,8,0,0,0-2.7,1.14,3.36,3.36,0,0,0-1.27,1.59,5.9,5.9,0,0,0-.33,2,3.27,3.27,0,0,0,1.18,2.67,4.93,4.93,0,0,0,3.25,1A9.48,9.48,0,0,0,485.18,86a7.27,7.27,0,0,0,2-2.31,7.12,7.12,0,0,0,.78-3.49Z"/><path class="cls-6" d="M506.6,66.7h-5.34V59.6h5.34V50.55h9.11V59.6h7.82v7.1h-7.82V82.39c0,1.78.37,3,1.11,3.61a4.26,4.26,0,0,0,2.87.94c.6,0,1.22,0,1.85-.09a11.75,11.75,0,0,0,1.86-.36l1.3,6.71A21.61,21.61,0,0,1,521,94a27.41,27.41,0,0,1-3.42.23q-5.6,0-8.3-2.67t-2.7-9Z"/><path class="cls-6" d="M529.12,47.1h9.38v8.2h-9.38Zm.13,12.5h9.12v34h-9.12Z"/><path class="cls-6" d="M562.52,94.63q-8.21,0-12.69-4.69t-4.5-13.41A22.17,22.17,0,0,1,546.54,69,15.52,15.52,0,0,1,550,63.34a15,15,0,0,1,5.44-3.54,21.09,21.09,0,0,1,14.25,0,15,15,0,0,1,5.44,3.54A15.2,15.2,0,0,1,578.54,69a22.69,22.69,0,0,1,1.17,7.52,22.37,22.37,0,0,1-1.2,7.58,16,16,0,0,1-3.45,5.7,14.84,14.84,0,0,1-5.44,3.58A19.59,19.59,0,0,1,562.52,94.63Zm0-7.29a6.6,6.6,0,0,0,5.83-2.8q1.92-2.81,1.92-8t-1.92-8a7.58,7.58,0,0,0-11.65,0q-1.92,2.74-1.92,8c0,3.51.62,6.19,1.88,8A6.61,6.61,0,0,0,562.52,87.34Z"/><path class="cls-6" d="M586.61,59.6h8.86v4.69a12.41,12.41,0,0,1,4.78-4.36A12.77,12.77,0,0,1,606,58.56c3.87,0,6.73,1,8.6,3s2.8,5.19,2.8,9.53V93.59h-9.12V72.36c0-2.39-.45-4-1.37-4.88a5,5,0,0,0-3.64-1.3,7.94,7.94,0,0,0-3,.52,8.41,8.41,0,0,0-2.37,1.49,8,8,0,0,0-1.53,2.19,6.08,6.08,0,0,0-.62,2.76V93.59h-9.12Z"/></g></g></g></svg>