<?xml version="1.0" encoding="UTF-8"?>
<svg width="100px" height="100px" viewBox="0 0 100 100" version="1.1" xmlns="http://www.w3.org/2000/svg" xmlns:xlink="http://www.w3.org/1999/xlink">
    <!-- Generator: Sketch 57.1 (83088) - https://sketch.com -->
    <title>bluetooth</title>
    <desc>Created with Sketch.</desc>
    <g id="页面-1" stroke="none" stroke-width="1" fill="none" fill-rule="evenodd">
        <g id="bluetooth">
            <path d="M83.883,0.424 L16.119,0.424 C7.461,0.424 0.42,7.465 0.42,16.121 L0.42,83.879 C0.42,92.532 7.462,99.576 16.119,99.576 L83.881,99.576 C92.536,99.576 99.575,92.532 99.575,83.879 L99.58,81.684 L99.58,16.121 C99.58,7.465 92.538,0.424 83.883,0.424 Z M70.758,66.467 C72.067,67.777 72.032,69.902 70.758,71.216 C64.45,77.725 58.144,84.23 51.837,90.74 C49.785,92.857 46.104,91.26 46.104,88.365 C46.104,78.131 46.104,67.894 46.104,57.662 C41.804,61.96 37.507,66.257 33.209,70.555 C30.145,73.619 25.397,68.87 28.46,65.806 C33.817,60.449 39.175,55.094 44.529,49.737 C39.175,44.383 33.822,39.03 28.467,33.675 C25.4,30.611 30.152,25.86 33.216,28.926 C37.51,33.221 41.808,37.518 46.103,41.813 C46.103,31.752 46.103,21.693 46.103,11.634 C46.103,8.709 49.766,7.182 51.836,9.26 C58.143,15.593 64.449,21.927 70.757,28.26 C72.048,29.556 72.053,31.713 70.757,33.009 C65.179,38.584 59.604,44.162 54.027,49.737 C59.604,55.314 65.18,60.889 70.758,66.467 Z" id="形状" fill="#FFFFFF" fill-rule="nonzero"></path>
            <path d="M63.64,30.629 C60.033,27.008 56.428,23.388 52.821,19.765 C52.821,26.993 52.821,34.221 52.821,41.449 C56.428,37.841 60.032,34.234 63.64,30.629 Z" id="路径" fill="#FFFFFF" fill-rule="nonzero"></path>
            <path d="M52.82,58.026 C52.82,65.375 52.82,72.726 52.82,80.075 C56.438,76.345 60.053,72.611 63.672,68.878 C60.054,65.26 56.438,61.645 52.82,58.026 Z" id="路径" fill="#FFFFFF" fill-rule="nonzero"></path>
            <path d="M70.758,28.26 C64.45,21.927 58.144,15.593 51.837,9.26 C49.767,7.182 46.104,8.709 46.104,11.634 C46.104,21.693 46.104,31.752 46.104,41.813 C41.809,37.519 37.512,33.221 33.217,28.926 C30.153,25.859 25.401,30.61 28.468,33.675 C33.823,39.03 39.175,44.382 44.53,49.737 C39.176,55.094 33.818,60.449 28.461,65.806 C25.397,68.87 30.146,73.619 33.21,70.555 C37.508,66.257 41.805,61.96 46.105,57.662 C46.105,67.894 46.105,78.131 46.105,88.365 C46.105,91.26 49.786,92.857 51.838,90.74 C58.145,84.23 64.451,77.724 70.759,71.216 C72.033,69.902 72.068,67.777 70.759,66.467 C65.181,60.889 59.606,55.315 54.029,49.737 C59.606,44.162 65.181,38.584 70.759,33.009 C72.054,31.712 72.049,29.556 70.758,28.26 Z M63.64,30.629 C60.033,34.234 56.428,37.841 52.821,41.449 C52.821,34.221 52.821,26.993 52.821,19.765 C56.428,23.388 60.032,27.008 63.64,30.629 Z M52.82,58.026 C56.438,61.644 60.053,65.259 63.672,68.878 C60.054,72.611 56.439,76.345 52.82,80.075 C52.82,72.727 52.82,65.375 52.82,58.026 Z" id="形状"></path>
        </g>
    </g>
</svg>