<?xml version="1.0" encoding="UTF-8"?>
<svg width="90px" height="66px" viewBox="0 0 90 66" version="1.1" xmlns="http://www.w3.org/2000/svg" xmlns:xlink="http://www.w3.org/1999/xlink">
    <!-- Generator: Sketch 57.1 (83088) - https://sketch.com -->
    <title>game-controller</title>
    <desc>Created with Sketch.</desc>
    <g id="页面-1" stroke="none" stroke-width="1" fill="none" fill-rule="evenodd">
        <g id="game-controller" fill="#FFFFFF" fill-rule="nonzero">
            <path d="M4.469,63.871 C14.537,70.125 24.159,52.954 32.761,45.933 C33.164,45.604 33.924,45.353 34.445,45.353 L55.556,45.353 C56.076,45.353 56.835,45.604 57.239,45.933 C65.841,52.954 75.464,70.124 85.531,63.871 C93.9,58.674 88.252,20.788 86.63,16.005 C83.766,7.563 76.992,2.451 69.509,0.949 C68.999,0.847 68.16,0.782 67.641,0.782 L22.36,0.782 C21.839,0.782 21.001,0.847 20.491,0.949 C13.009,2.451 6.235,7.563 3.37,16.005 C1.749,20.789 -3.899,58.674 4.469,63.871 Z M67.264,34.229 C65.184,34.229 63.496,32.541 63.496,30.463 C63.496,28.383 65.184,26.697 67.264,26.697 C69.344,26.697 71.03,28.383 71.03,30.463 C71.029,32.542 69.344,34.229 67.264,34.229 Z M74.679,19.281 C76.758,19.281 78.446,20.968 78.446,23.048 C78.446,25.127 76.758,26.814 74.679,26.814 C72.599,26.814 70.912,25.127 70.912,23.048 C70.912,20.968 72.599,19.281 74.679,19.281 Z M67.264,11.867 C69.344,11.867 71.03,13.553 71.03,15.633 C71.03,17.713 69.344,19.4 67.264,19.4 C65.184,19.4 63.496,17.712 63.496,15.633 C63.496,13.552 65.184,11.867 67.264,11.867 Z M59.849,19.281 C61.928,19.281 63.615,20.968 63.615,23.048 C63.615,25.127 61.928,26.814 59.849,26.814 C57.768,26.814 56.082,25.127 56.082,23.048 C56.082,20.968 57.768,19.281 59.849,19.281 Z M14.886,21.462 C14.886,21.267 15.044,21.108 15.239,21.108 L20.889,21.108 C21.084,21.108 21.243,20.951 21.243,20.755 L21.243,15.105 C21.243,14.911 21.4,14.752 21.596,14.752 L26.07,14.752 C26.264,14.752 26.423,14.91 26.423,15.105 L26.423,20.755 C26.423,20.95 26.581,21.108 26.777,21.108 L32.426,21.108 C32.621,21.108 32.78,21.266 32.78,21.462 L32.78,25.935 C32.78,26.13 32.622,26.288 32.426,26.288 L26.777,26.288 C26.582,26.288 26.423,26.446 26.423,26.642 L26.423,32.291 C26.423,32.486 26.265,32.645 26.07,32.645 L21.596,32.645 C21.401,32.645 21.243,32.487 21.243,32.291 L21.243,26.642 C21.243,26.447 21.085,26.288 20.889,26.288 L15.239,26.288 C15.045,26.288 14.886,26.13 14.886,25.935 L14.886,21.462 Z" id="形状"></path>
        </g>
    </g>
</svg>