<?xml version="1.0" encoding="UTF-8"?>
<svg width="20px" height="46px" viewBox="0 0 20 46" version="1.1" xmlns="http://www.w3.org/2000/svg" xmlns:xlink="http://www.w3.org/1999/xlink">
    <!-- Generator: Sketch 57.1 (83088) - https://sketch.com -->
    <title>left-joy-con</title>
    <desc>Created with Sketch.</desc>
    <g id="页面-1" stroke="none" stroke-width="1" fill="none" fill-rule="evenodd">
        <g id="left-joy-con" fill="#FFFFFF" fill-rule="nonzero">
            <path d="M17.67,0.77 L12.47,0.77 C9.3948147,0.616428888 6.39460493,1.75056616 4.19,3.9 C0.8,7.37 0.88,12.43 0.89,12.61 L0.89,33.36 C0.89,33.57 0.8,38.63 4.19,42.1 C6.39460493,44.2494338 9.3948147,45.3835711 12.47,45.23 L17.67,45.23 C18.0536507,45.2300093 18.421444,45.0769235 18.6917857,44.8047044 C18.9621274,44.5324853 19.1126642,44.1636414 19.1100348,43.78 L19.1100348,2.22 C19.1126642,1.83635856 18.9621274,1.46751467 18.6917857,1.19529561 C18.421444,0.923076544 18.0536507,0.769990749 17.67,0.77 Z M16.22,42.34 L12.47,42.34 C10.1841004,42.4717106 7.94385812,41.6623328 6.27,40.1 C3.73,37.51 3.77992826,33.46 3.77992826,33.39 L3.77992826,12.58 C3.77992826,12.58 3.73,8.49 6.27,5.9 C7.94385812,4.3376672 10.1841004,3.52828935 12.47,3.66 L16.22,3.66 L16.22,42.34 Z" id="形状"></path>
            <path d="M8.5,25.57 C8.43191688,24.6842641 7.69334871,24.0002881 6.805,24.0002881 C5.91665129,24.0002881 5.17808312,24.6842641 5.11,25.57 L5.11,25.57 C5.06106361,26.2066441 5.37300175,26.8170206 5.91763414,27.1503164 C6.46226652,27.4836121 7.14773348,27.4836121 7.69236586,27.1503164 C8.23699825,26.8170206 8.54893639,26.2066441 8.5,25.57 Z" id="路径"></path>
            <path d="M10.19,23.88 C11.1266125,23.8745386 11.8845386,23.1166125 11.89,22.18 L11.89,22.18 C11.8219169,21.2942641 11.0833487,20.6102881 10.195,20.6102881 C9.30665129,20.6102881 8.56808312,21.2942641 8.5,22.18 L8.5,22.18 C8.5,23.1149927 9.25502352,23.8745 10.19,23.88 Z" id="路径"></path>
            <path d="M11.89,25.57 L11.89,25.57 C11.8410636,26.2066441 12.1530018,26.8170206 12.6976341,27.1503164 C13.2422665,27.4836121 13.9277335,27.4836121 14.4723659,27.1503164 C15.0169982,26.8170206 15.3289364,26.2066441 15.28,25.57 L15.28,25.57 C15.2119169,24.6842641 14.4733487,24.0002881 13.585,24.0002881 C12.6966513,24.0002881 11.9580831,24.6842641 11.89,25.57 L11.89,25.57 Z" id="路径"></path>
            <path d="M10.19,27.27 C9.30426408,27.3380831 8.62028814,28.0766513 8.62028814,28.965 C8.62028814,29.8533487 9.30426408,30.5919169 10.19,30.66 C10.8266441,30.7089364 11.4370206,30.3969982 11.7703164,29.8523659 C12.1036121,29.3077335 12.1036121,28.6222665 11.7703164,28.0776341 C11.4370206,27.5330018 10.8266441,27.2210636 10.19,27.27 L10.19,27.27 Z" id="路径"></path>
            <path d="M6.4,13.56 C6.4,15.6531592 8.0968408,17.35 10.19,17.35 C12.2831592,17.35 13.98,15.6531592 13.98,13.56 C13.98,11.4668408 12.2831592,9.77 10.19,9.77 C8.09912118,9.77549511 6.40549511,11.4691212 6.4,13.56 L6.4,13.56 Z M11.67,13.56 C11.67,14.3773814 11.0073814,15.04 10.19,15.04 C9.37261857,15.04 8.71,14.3773814 8.71,13.56 C8.71,12.7426186 9.37261857,12.08 10.19,12.08 C11.0051123,12.0854524 11.6645476,12.7448877 11.67,13.56 Z" id="形状"></path>
        </g>
    </g>
</svg>