<?xml version="1.0" encoding="UTF-8"?>
<svg width="183px" height="180px" viewBox="0 0 183 180" version="1.1" xmlns="http://www.w3.org/2000/svg" xmlns:xlink="http://www.w3.org/1999/xlink">
    <!-- Generator: Sketch 57.1 (83088) - https://sketch.com -->
    <title>nintendo-switch-logo</title>
    <desc>Created with Sketch.</desc>
    <g id="页面-1" stroke="none" stroke-width="1" fill="none" fill-rule="evenodd">
        <g id="nintendo-switch-logo" fill="#FFFFFF" fill-rule="nonzero">
            <path d="M130.14698,0.9667 L121.58367,1.0365 L113.32268,1.0365 L106.89568,1.0365 L106.89568,15.725 L106.89568,164.74743 L106.89568,179.43542 L130.13561,179.43542 L137.43439,179.43542 C162.19325,179.43542 182.42978,158.69216 182.52931,133.95293 L182.53131,133.95293 L182.53131,133.80978 C182.53132,133.79648 182.53182,133.78328 182.53182,133.76998 L182.53182,126.4712 L182.53131,126.4712 L182.53131,120.3739 L182.53131,53.93041 L182.54321,53.93041 L182.54321,46.63163 C182.54321,21.81165 162.2657,0.9667 137.4457,0.9667 L130.14698,0.9667 Z M45.780035,0.96722 C21.021168,0.96722 0.78465,21.70996 0.685113,46.4492 L0.683013,46.4492 L0.683013,46.59234 C0.683001,46.60564 0.682496,46.61884 0.682496,46.63214 L0.682496,53.93092 L0.683013,53.93092 L0.683013,60.02822 L0.683013,126.47171 L0.671123,126.47171 L0.671123,133.77049 C0.671123,158.59048 20.948635,179.4354 45.768629,179.4354 L53.067408,179.4354 L87.97173,179.4354 L87.97173,164.7474 L87.97173,15.72497 L87.97173,1.03647 L81.544777,1.03647 L73.283781,1.03647 L53.078815,1.03647 L53.078815,0.96722 L45.780035,0.96722 Z M46.347958,15.70689 L46.347958,15.72499 L53.078296,15.72499 L53.078815,39.57625 L53.078815,15.72499 L73.283781,15.72499 L73.283781,28.58209 L73.283781,164.74742 L53.067445,164.74742 L53.067445,126.47172 L53.066927,164.74742 L46.854904,164.74742 C23.466929,162.61141 16.317853,148.95595 15.371039,130.27044 L15.371039,126.4717 L53.067445,126.4717 L15.371039,126.4707 L15.371039,53.93249 L29.017749,53.93197 C28.9985627,54.1929423 28.9854691,54.4543268 28.978479,54.71591 C28.9786452,64.0052753 36.5092747,71.5356715 45.79864,71.53555 C55.0878034,71.535386 62.6181178,64.0050734 62.618284,54.71591 C62.6092591,48.2564247 58.9018388,42.3727503 53.078817,39.57678 C53.078817,39.5766067 53.078817,39.5764333 53.078817,39.57626 C50.8087727,38.4773641 48.320667,37.9030221 45.79864,37.89574 C36.8223764,37.9068064 29.4365356,44.964444 29.017751,53.93094 L15.371039,53.93094 L15.371039,50.40299 C16.256336,31.7194 23.263956,18.00859 46.34796,15.70689 L46.347958,15.70689 Z M142.41289,81.14837 C152.46495,81.14837 160.48518,89.16859 160.48518,99.22065 C160.48518,109.27271 152.46495,117.29293 142.41289,117.29293 C132.36083,117.29293 124.34061,109.27271 124.34061,99.22065 C124.34061,89.16859 132.36083,81.14837 142.41289,81.14837 Z" id="path4506-0"></path>
        </g>
    </g>
</svg>