<?xml version="1.0" encoding="UTF-8"?>
<svg width="20px" height="46px" viewBox="0 0 20 46" version="1.1" xmlns="http://www.w3.org/2000/svg" xmlns:xlink="http://www.w3.org/1999/xlink">
    <!-- Generator: Sketch 57.1 (83088) - https://sketch.com -->
    <title>right-joy-con</title>
    <desc>Created with Sketch.</desc>
    <g id="页面-1" stroke="none" stroke-width="1" fill="none" fill-rule="evenodd">
        <g id="right-joy-con" fill="#FFFFFF" fill-rule="nonzero">
            <path d="M19.11,33.39 L19.11,12.64 C19.11,12.43 19.2,7.37 15.81,3.9 C13.6053951,1.75056616 10.6051853,0.616428888 7.53,0.77 L2.33,0.77 C1.94634931,0.769990749 1.57855602,0.923076544 1.30821433,1.19529561 C1.03787264,1.46751467 0.887335759,1.83635856 0.889965229,2.22 L0.889965229,43.78 C0.887335759,44.1636414 1.03787264,44.5324853 1.30821433,44.8047044 C1.57855602,45.0769235 1.94634931,45.2300093 2.33,45.23 L7.53,45.23 C10.6051853,45.3835711 13.6053951,44.2494338 15.81,42.1 C19.2,38.63 19.12,33.57 19.11,33.39 Z M13.74,40.08 C12.0720699,41.6604493 9.82359175,42.478736 7.53,42.34 L3.78,42.34 L3.78,3.66 L7.53,3.66 C9.81319078,3.52633115 12.0510903,4.33616879 13.72,5.9 C16.27,8.49 16.2200712,12.54 16.2200712,12.61 L16.2200712,33.43 C16.2116406,35.8712713 15.3322179,38.2294008 13.74,40.08 L13.74,40.08 Z" id="形状"></path>
            <path d="M8.50002962,14.86 C8.50404996,14.1715186 8.09243591,13.5485745 7.45752081,13.2822931 C6.82260571,13.0160116 6.08977129,13.1589777 5.60149906,13.6443778 C5.11322683,14.1297778 4.96593978,14.861756 5.22847078,15.498231 C5.49100178,16.134706 6.11150674,16.55 6.8,16.55 C7.73499266,16.55 8.49450004,15.7949765 8.50002962,14.86 Z" id="路径"></path>
            <path d="M10.19,16.55 C9.25111593,16.55 8.49,17.3111159 8.49,18.25 C8.49,19.1888841 9.25111593,19.95 10.19,19.95 C11.1288841,19.95 11.89,19.1888841 11.89,18.25 C11.89,17.3111159 11.1288841,16.55 10.19,16.55 Z" id="路径"></path>
            <path d="M13.58,13.16 C12.6411159,13.16 11.88,13.9211159 11.88,14.86 C11.88,15.7988841 12.6411159,16.56 13.58,16.56 C14.5188841,16.56 15.28,15.7988841 15.28,14.86 C15.28,14.409132 15.1008934,13.9767303 14.7820815,13.6579185 C14.4632697,13.3391066 14.030868,13.16 13.58,13.16 L13.58,13.16 Z" id="路径"></path>
            <path d="M10.19,13.1600294 C10.8793891,13.1640434 11.5029624,12.7513412 11.7686514,12.1151942 C12.0343404,11.4790472 11.8895324,10.7454278 11.4020523,10.2579477 C10.9145722,9.77046763 10.1809528,9.6256596 9.54480581,9.89134862 C8.90865881,10.1570376 8.49595656,10.7806109 8.49997055,11.47 C8.50546108,12.4010898 9.25891021,13.1545389 10.19,13.1600294 Z" id="路径"></path>
            <path d="M10.19,23.0699472 C8.09132866,23.0755301 6.39450105,24.7813198 6.40001284,26.8799912 C6.40555153,28.9786625 8.11133734,30.6754941 10.2100087,30.6699871 C12.3086801,30.6644533 14.0055156,28.9586714 14.0000134,26.86 C14.0000134,25.8513547 13.5979674,24.88431 12.882873,24.1729694 C12.1677786,23.4616288 11.1986313,23.0646773 10.19,23.0699472 L10.19,23.0699472 Z M10.19,28.35 C9.58645776,28.3540507 9.04008813,27.9936034 8.80631032,27.4371615 C8.57253251,26.8807196 8.69753041,26.2382108 9.12286945,25.8099978 C9.54820849,25.3817849 10.189861,25.2524632 10.7478645,25.4824887 C11.305868,25.7125142 11.67,26.2564442 11.67,26.86 C11.67,27.6790148 11.0089964,28.3445033 10.19,28.35 L10.19,28.35 Z" id="形状"></path>
        </g>
    </g>
</svg>