<?xml version="1.0" encoding="UTF-8"?>
<svg width="30px" height="30px" viewBox="0 0 30 30" version="1.1" xmlns="http://www.w3.org/2000/svg" xmlns:xlink="http://www.w3.org/1999/xlink">
    <!-- Generator: Sketch 57.1 (83088) - https://sketch.com -->
    <title>xbox-logo</title>
    <desc>Created with Sketch.</desc>
    <g id="页面-1" stroke="none" stroke-width="1" fill="none" fill-rule="evenodd">
        <g id="xbox-logo" fill="#FFFFFF" fill-rule="nonzero">
            <path d="M10.9,8.3 C10.9,8.3 10.9,8.3 10.9,8.3 C10.9,8.3 10.9,8.3 10.9,8.3 C5.8,3.2 4.5,4.3 4.5,4.3 L4.5,4.3 C1.7,7 0,10.8 0,15 C0,18.4 1.1,21.6 3.1,24.1 C3.1,24.1 3.2,24.1 3.2,24.1 C3.2,24.1 3.2,24.1 3.2,24 C2,20.5 7.9,11.9 10.9,8.3 Z" id="路径"></path>
            <path d="M25.5,4.3 L25.5,4.3 C25.5,4.3 24.2,3.2 19.1,8.2 C19.1,8.2 19.1,8.2 19.1,8.2 C19.1,8.2 19.1,8.2 19.1,8.2 C22.1,11.8 28,20.4 26.8,23.9 C26.8,23.9 26.8,24 26.8,24 C26.8,24 26.9,24 26.9,24 C28.8,21.5 30,18.3 30,14.9 C30,10.8 28.3,7 25.5,4.3 Z" id="路径"></path>
            <path d="M15,4.4 C15,4.4 15,4.4 15,4.4 C15,4.4 15,4.4 15,4.4 C15.5,4.2 19.9,1.6 22.8,2.3 C22.8,2.3 22.9,2.3 22.9,2.3 C22.9,2.3 22.9,2.2 22.9,2.2 C20.5,0.8 18,0 15,0 C12,0 9.5,0.8 7.2,2.2 C7.2,2.2 7.2,2.2 7.2,2.3 C7.2,2.3 7.2,2.3 7.3,2.3 C9.8,1.7 13.9,3.8 15,4.4 Z" id="路径"></path>
            <path d="M15,12.1 C15,12 15,12 15,12.1 C15,12 15,12 15,12.1 C10.4,15.5 2.7,24 5.1,26.3 C7.8,28.6 11.2,30 15,30 C18.8,30 22.2,28.6 24.9,26.3 L24.9,26.3 C27.2,23.9 19.5,15.5 15,12.1 Z" id="路径"></path>
        </g>
    </g>
</svg>