<svg id="Layer_1" data-name="Layer 1" xmlns="http://www.w3.org/2000/svg" xmlns:xlink="http://www.w3.org/1999/xlink" viewBox="0 0 1733.73 1034.55"><defs><style>.cls-1{fill:url(#linear-gradient);}.cls-2{fill:url(#linear-gradient-2);}.cls-3{fill:url(#linear-gradient-3);}.cls-4{fill:url(#linear-gradient-4);}.cls-5{fill:url(#linear-gradient-5);}.cls-11,.cls-6,.cls-9{opacity:0.8;}.cls-7,.cls-9{fill:#f2f2f2;}.cls-8{fill:url(#linear-gradient-6);}.cls-10{fill:url(#linear-gradient-7);}.cls-11{fill:#fff;}.cls-12{fill:url(#linear-gradient-8);}.cls-13{fill:url(#linear-gradient-9);}.cls-14{fill:url(#linear-gradient-10);}.cls-15{fill:url(#linear-gradient-11);}.cls-16{fill:url(#linear-gradient-12);}.cls-17{fill:url(#linear-gradient-13);}.cls-18{fill:url(#linear-gradient-14);}</style><linearGradient id="linear-gradient" x1="1468.77" y1="988.99" x2="1513.7" y2="988.99" gradientUnits="userSpaceOnUse"><stop offset="0" stop-color="#2c23f7"/><stop offset="1" stop-color="#409af4"/></linearGradient><linearGradient id="linear-gradient-2" x1="1470.27" y1="902.74" x2="1695.96" y2="902.74" xlink:href="#linear-gradient"/><linearGradient id="linear-gradient-3" x1="251.08" y1="922.99" x2="449.22" y2="922.99" xlink:href="#linear-gradient"/><linearGradient id="linear-gradient-4" x1="478.08" y1="978.34" x2="526.19" y2="978.34" xlink:href="#linear-gradient"/><linearGradient id="linear-gradient-5" x1="1376.93" y1="873.65" x2="1640.82" y2="873.65" xlink:href="#linear-gradient"/><linearGradient id="linear-gradient-6" x1="509.95" y1="743.37" x2="756.68" y2="743.37" gradientTransform="matrix(-1, 0, 0, 1, 889, 0)" xlink:href="#linear-gradient"/><linearGradient id="linear-gradient-7" x1="1553.83" y1="700.13" x2="1828.1" y2="700.13" xlink:href="#linear-gradient"/><linearGradient id="linear-gradient-8" x1="246.31" y1="819.77" x2="481.37" y2="819.77" gradientTransform="matrix(-0.97, 0.23, 0.23, 0.97, 615.39, -17.52)" xlink:href="#linear-gradient"/><linearGradient id="linear-gradient-9" x1="239.44" y1="-15.77" x2="318.77" y2="-15.77" gradientTransform="translate(-128.39 37.82) rotate(8.17)" xlink:href="#linear-gradient"/><linearGradient id="linear-gradient-10" x1="1849.08" y1="537.02" x2="1928.41" y2="537.02" gradientTransform="matrix(0.95, -0.31, 0.31, 0.95, -158.37, 198.6)" xlink:href="#linear-gradient"/><linearGradient id="linear-gradient-11" x1="225.25" y1="626.17" x2="304.57" y2="626.17" gradientTransform="translate(-1.13 -153.3) rotate(0.72)" xlink:href="#linear-gradient"/><linearGradient id="linear-gradient-12" x1="825.6" y1="156.25" x2="904.92" y2="156.25" gradientTransform="matrix(0.95, -0.31, 0.31, 0.95, -158.37, 198.6)" xlink:href="#linear-gradient"/><linearGradient id="linear-gradient-13" x1="1699.05" y1="869.67" x2="1778.37" y2="869.67" gradientTransform="matrix(0.95, -0.31, 0.31, 0.95, -158.37, 198.6)" xlink:href="#linear-gradient"/><linearGradient id="linear-gradient-14" x1="1357.5" y1="392.98" x2="1436.83" y2="392.98" gradientTransform="translate(-143.33 -74.9) rotate(-7.15)" xlink:href="#linear-gradient"/></defs><path class="cls-1" d="M1505.46,1080h5.76c6.38-37.54-.61-77.57-8.91-107.57a420.4,420.4,0,0,0-28.5-74.45l-5,2.64a414.12,414.12,0,0,1,28.08,73.44C1505,1003.68,1512,1043.25,1505.46,1080Z" transform="translate(-110.47 -45.45)"/><path class="cls-2" d="M1582.32,1018.91c-44.34,11.12-82,31.66-112,61.09h8.25c28.58-26.54,63.92-45.23,105.18-55.58,49-12.3,82.49-37.69,99.4-75.46,9.35-20.9,13.64-45.7,12.75-73.71-.72-22.28-4.69-46.65-11.82-72.42a437.27,437.27,0,0,0-29.61-77.36l-5,2.65a430.81,430.81,0,0,1,29.19,76.34c11,39.68,19.75,96.56-.67,142.19C1661.74,982.74,1629.58,1007.05,1582.32,1018.91Z" transform="translate(-110.47 -45.45)"/><path class="cls-3" d="M352.19,1035.18c34.35,8.61,64.12,23.63,88.75,44.72h8.28c-26.16-23.84-58.3-40.66-95.69-50C311,1019.23,282.13,997.4,267.61,965c-18.36-41-10.46-92.09-.6-127.74a386.21,386.21,0,0,1,26.27-68.63l-4.86-2.55a393.57,393.57,0,0,0-26.66,69.61c-10.12,36.55-18.19,89,.85,131.54C277.85,1001.24,308,1024.11,352.19,1035.18Z" transform="translate(-110.47 -45.45)"/><path class="cls-4" d="M518.1,1080h8.09a98.71,98.71,0,0,1-13.57-14.4c-26.07-33.88-30.09-83-28.87-118.17A369.69,369.69,0,0,1,492.84,878l-5.31-1.35a375.44,375.44,0,0,0-9.25,70.45c-1.26,36.14,2.91,86.61,30,121.81A106.38,106.38,0,0,0,518.1,1080Z" transform="translate(-110.47 -45.45)"/><path class="cls-5" d="M1640.82,873.65A131.95,131.95,0,1,1,1508.88,741.7,131.95,131.95,0,0,1,1640.82,873.65Z" transform="translate(-110.47 -45.45)"/><g class="cls-6"><polygon class="cls-7" points="1465.66 813.88 1457.7 793.33 1404.84 813.81 1384.36 760.94 1363.81 768.9 1384.29 821.77 1331.42 842.25 1339.38 862.8 1392.25 842.32 1412.73 895.18 1433.28 887.22 1412.8 834.36 1465.66 813.88"/></g><path class="cls-8" d="M132.32,743.37A123.37,123.37,0,1,0,255.68,620,123.36,123.36,0,0,0,132.32,743.37Z" transform="translate(-110.47 -45.45)"/><path class="cls-9" d="M281.53,816.29,181,770.87l45.42-100.54,100.53,45.42ZM209.8,760l60.84,27.48,27.49-60.84-60.84-27.48Z" transform="translate(-110.47 -45.45)"/><path class="cls-10" d="M1828.1,700.13A137.14,137.14,0,1,1,1691,563,137.14,137.14,0,0,1,1828.1,700.13Z" transform="translate(-110.47 -45.45)"/><path class="cls-11" d="M1776.46,765.71,1605,719.47l118.67-99Zm-121.78-57.13L1739,731.33l-26-71.49Z" transform="translate(-110.47 -45.45)"/><path class="cls-12" d="M338.09,891.79A117.53,117.53,0,1,0,425,750.13,117.52,117.52,0,0,0,338.09,891.79Z" transform="translate(-110.47 -45.45)"/><path class="cls-11" d="M452.3,929.22a64.7,64.7,0,1,1,64.7-64.7A64.77,64.77,0,0,1,452.3,929.22Zm0-113.78a49.08,49.08,0,1,0,49.08,49.08A49.14,49.14,0,0,0,452.3,815.44Z" transform="translate(-110.47 -45.45)"/><path class="cls-13" d="M189.78,64.75l-1.57,11s-9,7.4-20.37-2.92-20.32-2.89-20.32-2.89-11.23,8.77-23.37-2.1c0,0-5-8.41-13.68-8.82L112,48s9-7.4,20.37,2.92,20.32,2.89,20.32,2.89,11.22-8.77,23.37,2.1A20.73,20.73,0,0,0,189.78,64.75Z" transform="translate(-110.47 -45.45)"/><path class="cls-14" d="M1840.78,111.56l3.42,10.53s-4.82,10.6-19.57,6.35-19.52,6.36-19.52,6.36-6.21,12.82-21.9,8.41c0,0-8.21-5.33-16.17-1.89l-3.41-10.52s4.81-10.61,19.56-6.35,19.52-6.37,19.52-6.37,6.21-12.82,21.9-8.4A20.72,20.72,0,0,0,1840.78,111.56Z" transform="translate(-110.47 -45.45)"/><path class="cls-15" d="M295.57,473.89,295.43,485s-8,8.5-20.57-.26-20.53-.23-20.53-.23-10,10.15-23.44.94c0,0-6.07-7.68-14.71-7l.14-11.06s8-8.5,20.57.26,20.53.23,20.53.23,10-10.15,23.44-.94A20.75,20.75,0,0,0,295.57,473.89Z" transform="translate(-110.47 -45.45)"/><path class="cls-16" d="M749.74,65.28l3.42,10.53s-4.82,10.6-19.57,6.35-19.52,6.36-19.52,6.36-6.21,12.82-21.9,8.4c0,0-8.21-5.32-16.17-1.88l-3.41-10.53s4.81-10.6,19.57-6.35,19.51-6.36,19.51-6.36,6.21-12.82,21.91-8.4A20.74,20.74,0,0,0,749.74,65.28Z" transform="translate(-110.47 -45.45)"/><path class="cls-17" d="M1800.74,474.28l3.42,10.53s-4.82,10.6-19.57,6.35-19.52,6.36-19.52,6.36-6.21,12.82-21.9,8.4c0,0-8.21-5.32-16.17-1.88l-3.41-10.53s4.81-10.6,19.57-6.35,19.51-6.36,19.51-6.36,6.21-12.82,21.91-8.4A20.74,20.74,0,0,0,1800.74,474.28Z" transform="translate(-110.47 -45.45)"/><path class="cls-18" d="M1330.88,133.47l1.38,11s-6.72,9.51-20.41,2.56-20.37,2.59-20.37,2.59-8.51,11.42-23.09,4.14c0,0-7.06-6.78-15.53-4.89l-1.37-11s6.72-9.51,20.41-2.56,20.36-2.59,20.36-2.59,8.51-11.42,23.1-4.14A20.73,20.73,0,0,0,1330.88,133.47Z" transform="translate(-110.47 -45.45)"/></svg>